# xmcd CD database file
#
# Track frame offsets:
#	150
#	17762
#	35837
#
# Disc length: 711 seconds
#
# Revision: 0
# Processed by: cddbd v1.5PL3 Copyright (c) Steve Scherf et al.
# Submitted via: CDex 1.51
#
DISCID=1f02c503
DTITLE=KIX･S - 自由に歩いて愛して
DYEAR=1995
DGENRE=JPop
TTITLE0=自由に歩いて愛して
TTITLE1=SPUNKY BOP
TTITLE2=自由に歩いて愛して (Vocalless)
EXTD=YEAR: 1995
EXTT0=
EXTT1=
EXTT2=
PLAYORDER=
